<?xml version="1.0" encoding="UTF-8" standalone="no"?>
<!-- Created with Inkscape (http://www.inkscape.org/) -->

<svg
   width="210mm"
   height="297mm"
   viewBox="0 0 210 297"
   version="1.1"
   id="svg212"
   sodipodi:docname="netopyr-outline.svg"
   inkscape:version="1.2.1 (9c6d41e410, 2022-07-14)"
   xmlns:inkscape="http://www.inkscape.org/namespaces/inkscape"
   xmlns:sodipodi="http://sodipodi.sourceforge.net/DTD/sodipodi-0.dtd"
   xmlns="http://www.w3.org/2000/svg"
   xmlns:svg="http://www.w3.org/2000/svg">
  <sodipodi:namedview
     id="namedview214"
     pagecolor="#ffffff"
     bordercolor="#666666"
     borderopacity="1.0"
     inkscape:showpageshadow="2"
     inkscape:pageopacity="0.0"
     inkscape:pagecheckerboard="0"
     inkscape:deskcolor="#d1d1d1"
     inkscape:document-units="mm"
     showgrid="false"
     inkscape:zoom="1.4948513"
     inkscape:cx="193.66475"
     inkscape:cy="420.10868"
     inkscape:window-width="1920"
     inkscape:window-height="1011"
     inkscape:window-x="0"
     inkscape:window-y="32"
     inkscape:window-maximized="1"
     inkscape:current-layer="layer1" />
  <defs
     id="defs209">
    <inkscape:path-effect
       effect="mirror_symmetry"
       start_point="50.426377,26.392348"
       end_point="50.426377,68.914356"
       center_point="50.426377,47.653352"
       id="path-effect591"
       is_visible="true"
       lpeversion="1.2"
       lpesatellites=""
       mode="free"
       discard_orig_path="false"
       fuse_paths="true"
       oposite_fuse="false"
       split_items="false"
       split_open="false"
       link_styles="false" />
  </defs>
  <g
     inkscape:label="Layer 1"
     inkscape:groupmode="layer"
     id="layer1">
    <path
       style="display:inline;fill:none;stroke:#000000;stroke-width:0.52548473;stroke-linecap:butt;stroke-linejoin:miter;stroke-dasharray:none;stroke-opacity:1"
       d="m 50.426377,35.114894 c -0.308122,1.23e-4 -0.923307,-9.4e-4 -1.3948,-0.01008 -0.655401,-0.01274 -1.558284,-0.64415 -1.558284,-0.64415 0,0 -2.762884,-2.199184 -3.84826,-2.167099 -2.655361,0.0785 -0.360976,5.918521 -0.40847,10.078413 -7.170591,-1.668644 -17.291402,-6.664594 -20.192719,-12.719258 -0.34672,-0.72356 -0.373806,-3.20716 -1.261444,-3.229015 -0.564694,-0.0139 -1.564726,3.568772 -3.224007,6.263159 -2.354595,4.572445 -7.539449,10.533267 -9.4055517,34.573237 -0.074566,0.960588 0.2468861,1.657448 0.6582152,1.683974 2.0424865,0.131715 2.6287585,-7.918997 8.0274125,-8.637533 2.263644,-0.326873 4.011596,3.030268 5.015326,2.922572 1.730861,-0.185714 1.251616,-4.809493 6.174321,-4.861194 2.970038,-0.03119 3.077301,2.61285 4.351408,2.607315 0.709516,-0.0031 2.545325,-3.336886 6.5547,-3.000846 1.868621,0.156616 3.011129,1.315153 4.248306,2.421321 2.118321,1.894004 3.530346,5.069572 4.459334,7.688931 0.210091,0.59237 1.118582,0.857938 1.804513,0.873593 0.685931,-0.01565 1.594422,-0.281223 1.804513,-0.873593 0.928988,-2.619359 2.341013,-5.794927 4.459334,-7.688931 1.237177,-1.106168 2.379685,-2.264705 4.248306,-2.421321 4.009375,-0.33604 5.845184,2.997746 6.5547,3.000846 1.274107,0.0055 1.38137,-2.638505 4.351408,-2.607315 4.922705,0.0517 4.44346,4.67548 6.174321,4.861194 1.00373,0.107696 2.751682,-3.249445 5.015326,-2.922572 5.398654,0.718536 5.984926,8.769248 8.027413,8.637533 0.411329,-0.02653 0.732781,-0.723386 0.658215,-1.683974 -1.866103,-24.03997 -7.050957,-30.000792 -9.405552,-34.573237 -1.659281,-2.694387 -2.659313,-6.277059 -3.224007,-6.263159 -0.887638,0.02186 -0.914724,2.505455 -1.261444,3.229015 -2.901317,6.054664 -13.022128,11.050614 -20.192719,12.719258 -0.04749,-4.159892 2.246891,-9.999913 -0.40847,-10.078413 -1.085376,-0.03208 -3.84826,2.167099 -3.84826,2.167099 0,0 -0.902883,0.63141 -1.558284,0.64415 -0.471493,0.0091 -1.086678,0.0102 -1.3948,0.01008 z"
       id="path489"
       sodipodi:nodetypes="czcscsscsccssssssc"
       class="UnoptimicedTransforms"
       transform="matrix(1.1422183,0,0,1.1413877,29.395812,48.578036)"
       inkscape:export-filename="C:\Users\adam\OneDrive\Plocha\svn\adam\mddm\kity\astable_lowpass\path489.png"
       inkscape:export-xdpi="96"
       inkscape:export-ydpi="96"
       inkscape:original-d="m 50.620029,35.114618 c 0,0 -0.933051,0.0029 -1.588452,-0.0098 -0.655401,-0.01274 -1.558284,-0.64415 -1.558284,-0.64415 0,0 -2.762884,-2.199184 -3.84826,-2.167099 -2.655361,0.0785 -0.360976,5.918521 -0.40847,10.078413 -7.170591,-1.668644 -17.291402,-6.664594 -20.192719,-12.719258 -0.34672,-0.72356 -0.373806,-3.20716 -1.261444,-3.229015 -0.564694,-0.0139 -1.564726,3.568772 -3.224007,6.263159 -2.354595,4.572445 -7.539449,10.533267 -9.4055517,34.573237 -0.074566,0.960588 0.2468861,1.657448 0.6582152,1.683974 2.0424865,0.131715 2.6287585,-7.918997 8.0274125,-8.637533 2.263644,-0.326873 4.011596,3.030268 5.015326,2.922572 1.730861,-0.185714 1.251616,-4.809493 6.174321,-4.861194 2.970038,-0.03119 3.077301,2.61285 4.351408,2.607315 0.709516,-0.0031 2.545325,-3.336886 6.5547,-3.000846 1.868621,0.156616 3.011129,1.315153 4.248306,2.421321 2.118321,1.894004 3.530346,5.069572 4.459334,7.688931 0.445938,1.257361 4.038447,1.042347 1.970272,0.09026"
       inkscape:path-effect="#path-effect591" />
  </g>
</svg>
