<?xml version="1.0" encoding="UTF-8" standalone="no"?>
<!-- Created with Inkscape (http://www.inkscape.org/) -->

<svg
   width="90mm"
   height="50mm"
   viewBox="0 0 90 50"
   version="1.1"
   id="svg212"
   sodipodi:docname="bat-outline.svg"
   inkscape:version="1.3.2 (1:1.3.2+202311252150+091e20ef0f)"
   xmlns:inkscape="http://www.inkscape.org/namespaces/inkscape"
   xmlns:sodipodi="http://sodipodi.sourceforge.net/DTD/sodipodi-0.dtd"
   xmlns="http://www.w3.org/2000/svg"
   xmlns:svg="http://www.w3.org/2000/svg">
  <sodipodi:namedview
     id="namedview214"
     pagecolor="#ffffff"
     bordercolor="#666666"
     borderopacity="1.0"
     inkscape:showpageshadow="2"
     inkscape:pageopacity="0.0"
     inkscape:pagecheckerboard="0"
     inkscape:deskcolor="#d1d1d1"
     inkscape:document-units="mm"
     showgrid="false"
     inkscape:zoom="3.2067293"
     inkscape:cx="180.24596"
     inkscape:cy="102.2849"
     inkscape:window-width="1916"
     inkscape:window-height="1044"
     inkscape:window-x="0"
     inkscape:window-y="16"
     inkscape:window-maximized="1"
     inkscape:current-layer="layer1" />
  <defs
     id="defs209">
    <inkscape:path-effect
       effect="mirror_symmetry"
       start_point="50.426377,26.392348"
       end_point="50.426377,68.914356"
       center_point="50.426377,47.653352"
       id="path-effect591"
       is_visible="true"
       lpeversion="1.2"
       lpesatellites=""
       mode="free"
       discard_orig_path="false"
       fuse_paths="true"
       oposite_fuse="false"
       split_items="false"
       split_open="false"
       link_styles="false" />
  </defs>
  <g
     inkscape:label="Layer 1"
     inkscape:groupmode="layer"
     id="layer1">
    <path
       style="display:inline;fill:none;fill-opacity:1;stroke:#000000;stroke-width:0.4;stroke-linecap:round;stroke-linejoin:round;stroke-dasharray:none;stroke-opacity:1"
       d="m 43.811851,7.297079 c -0.236637,0 -2.040376,-0.0569 -3.521049,0.502446 C 40.170645,7.646298 39.675389,5.244765 37.618623,0.51588102 36.84183,-1.270107 33.402548,4.883462 35.746251,9.736319 33.985906,11.676649 33.499565,15.395189 35.576669,18.34468 24.970563,18.30593 23.333288,14.913063 19.30277,5.657529 14.034489,5.390575 9.1790554,7.960071 5.6816614,12.021107 2.3032684,15.943963 0.19207042,21.258585 0.20002242,26.752727 6.8613624,25.179151 10.873969,29.541612 12.967913,35.464836 c 6.188214,-2.833841 12.737411,-0.545171 14.316667,6.128758 12.104793,-4.573754 13.610043,7.096312 16.527271,7.096312 m 1e-6,-41.392827 c 0.236637,0 2.040371,-0.0569 3.521051,0.502446 0.12015,-0.153227 0.61541,-2.55476 2.67218,-7.28364398 0.77679,-1.78598802 4.21607,4.36758098 1.87237,9.22043798 1.76034,1.94033 2.24668,5.65887 0.16958,8.608361 10.60611,-0.03875 12.24338,-3.431617 16.2739,-12.687151 5.268279,-0.266954 10.123709,2.302542 13.621109,6.363578 3.37839,3.922856 5.48959,9.237478 5.48164,14.73162 -6.66134,-1.573576 -10.67395,2.788885 -12.76789,8.712109 -6.188219,-2.833841 -12.737409,-0.545171 -14.316669,6.128758 -12.10479,-4.573754 -13.61004,7.096312 -16.527271,7.096312"
       id="path22"
       sodipodi:nodetypes="ccscccscccc"
       class="UnoptimicedTransforms"
       inkscape:export-filename="C:\Users\adam\OneDrive\Plocha\svn\adam\mddm\kity\astable_lowpass\path489.png"
       inkscape:export-xdpi="96"
       inkscape:export-ydpi="96"
       inkscape:label="outline" />
  </g>
</svg>
