<?xml version="1.0" encoding="UTF-8" standalone="no"?>
<svg
   width="6.0619998cm"
   height="8.1700001cm"
   viewBox="0 0 715.9832 964.95963"
   version="1.1"
   id="svg1"
   sodipodi:docname="7segPaths.svg"
   inkscape:version="1.4 (e7c3feb, 2024-10-09)"
   xmlns:inkscape="http://www.inkscape.org/namespaces/inkscape"
   xmlns:sodipodi="http://sodipodi.sourceforge.net/DTD/sodipodi-0.dtd"
   xmlns="http://www.w3.org/2000/svg"
   xmlns:svg="http://www.w3.org/2000/svg">
  <defs
     id="defs1" />
  <sodipodi:namedview
     id="namedview1"
     pagecolor="#ffffff"
     bordercolor="#999999"
     borderopacity="1"
     inkscape:showpageshadow="2"
     inkscape:pageopacity="0"
     inkscape:pagecheckerboard="0"
     inkscape:deskcolor="#d1d1d1"
     inkscape:document-units="in"
     inkscape:zoom="2.5923919"
     inkscape:cx="114.75888"
     inkscape:cy="154.10478"
     inkscape:window-width="1916"
     inkscape:window-height="1044"
     inkscape:window-x="0"
     inkscape:window-y="0"
     inkscape:window-maximized="1"
     inkscape:current-layer="g1" />
  <g
     id="g1">
    <path
       id="Selection #7"
       fill="none"
       stroke="#000000"
       stroke-width="1"
       d="m 657,854.42 c 6.39,-0.77 12.83,0.26 19,2.01 31.87,8.99 47.59,44.85 33.68,74.57 -7.09,15.15 -23.04,27.3 -39.68,29.85 0,0 -13,0 -13,0 -7.45,0.06 -14.43,-2.19 -21,-5.63 -25.86,-13.55 -35.19,-45.24 -22.88,-71.22 8.9,-18.78 24.36,-26.63 43.88,-29.58 z"
       style="fill:#000000;fill-opacity:1" />
    <path
       id="Selection #6"
       fill="none"
       stroke="#000000"
       stroke-width="1"
       d="m 461,964 c 0,0 -393,0 -393,0 C 43.17,963.96 17.08,944.4 7.43,922 4.95,916.24 3.24,911.15 2.01,905 c -0.43,-2.1 -1.33,-5.42 0,-7.3 1.22,-1.73 5.95,-3.28 7.99,-4.01 0,0 20,-7.11 20,-7.11 0,0 55,-20 55,-20 10.4,-3.89 21.83,-9.56 33,-9.58 0,0 314,0 314,0 0,0 10.58,40 10.58,40 z"
       style="fill:#000000;fill-opacity:1" />
    <path
       id="Selection #5"
       fill="none"
       stroke="#000000"
       stroke-width="1"
       d="m 488,963 c 0,0 -6.12,-24 -6.12,-24 0,0 -14.59,-53 -14.59,-53 0,0 -7.66,-29 -7.66,-29 0,0 3.2,-35 3.2,-35 0,0 6,-60 6,-60 0,0 12,-121 12,-121 0,0 5.45,-56 5.45,-56 0.27,-2.17 0.77,-7.1 1.74,-8.83 1.6,-2.86 13.76,-13.14 16.98,-16.21 0,0 48,-43.87 48,-43.87 0,0 16,-14.49 16,-14.49 2.88,-2.36 5.22,-4.88 8.83,-2.23 0,0 13.33,14.63 13.33,14.63 2.28,2.55 5.75,5.69 6.7,9 0.84,2.91 -0.2,9.83 -0.58,13 0,0 -2,20 -2,20 0,0 -3.45,36 -3.45,36 0,0 -2.75,26 -2.75,26 0,0 -6.91,69 -6.91,69 0,0 -12,121 -12,121 0,0 -6,60 -6,60 -0.77,7.68 -1.84,25.62 -3.92,32 -9.97,30.56 -40.15,58.06 -72.25,63 z"
       style="fill:#000000;fill-opacity:1" />
    <path
       id="Selection #4"
       fill="none"
       stroke="#000000"
       stroke-width="1"
       d="m 3,869 c 0,0 3.17,-29 3.17,-29 0,0 6,-60 6,-60 0,0 12.66,-126 12.66,-126 0,0 5.89,-59 5.89,-59 0,0 5,-51 5,-51 0,0 2.29,-19.83 2.29,-19.83 1.19,-2.96 5.61,-6.86 7.99,-9.13 5.24,-5 15.91,-15.44 22,-18.04 0,0 49.08,55 49.08,55 0,0 14.5,16 14.5,16 0,0 6.23,8 6.23,8 0,0 -0.74,16 -0.74,16 0,0 -3.9,38 -3.9,38 0,0 -14,140 -14,140 0,0 -4.15,42 -4.15,42 0,0 -2.84,17.3 -2.84,17.3 0,0 -8.18,3.89 -8.18,3.89 0,0 -20,7.23 -20,7.23 0,0 -47,17 -47,17 z"
       style="fill:#000000;fill-opacity:1" />
    <path
       id="Selection #3"
       fill="none"
       stroke="#000000"
       stroke-width="1"
       d="m 96,482 c 0,0 43,-39.28 43,-39.28 8.36,-7.37 11.25,-13.7 23,-13.72 0,0 331,0 331,0 11.6,0.02 12.58,4.87 20,13 0,0 36,41 36,41 0,0 -23,20.83 -23,20.83 0,0 -18,16.21 -18,16.21 0,0 -18,15.36 -18,15.36 0,0 -7,0.6 -7,0.6 0,0 -332,0 -332,0 0,0 -6.91,-0.6 -6.91,-0.6 0,0 -13.37,-13.4 -13.37,-13.4 z"
       style="fill:#000000;fill-opacity:1" />
    <path
       id="Selection #2"
       fill="none"
       stroke="#000000"
       stroke-width="1"
       d="m 584,2 c 26.26,4.06 47.07,23.58 55.95,48 2.28,6.28 4.27,14.31 4.01,21 0,0 -2.79,27 -2.79,27 0,0 -7,70 -7,70 0,0 -19,190 -19,190 0,0 -5.89,59 -5.89,59 -0.61,5.16 -1.41,21.32 -3.3,25 -1.93,3.78 -7.72,8.42 -10.98,11.28 0,0 -14,12.36 -14,12.36 -4.47,2.86 -6.58,-0.43 -9.42,-3.64 0,0 -13.56,-15 -13.56,-15 0,0 -35.04,-39 -35.04,-39 -3.54,-3.79 -15.18,-15.91 -16.41,-20 -0.63,-2.11 0.33,-10.28 0.6,-13 0,0 17.66,-174 17.66,-174 0,0 6,-60 6,-60 0,0 3.76,-33 3.76,-33 0,0 10.55,-23 10.55,-23 0,0 22.11,-47 22.11,-47 z"
       style="fill:#000000;fill-opacity:1" />
    <path
       id="Selection #1"
       fill="none"
       stroke="#000000"
       stroke-width="1"
       d="M 85,68 C 91.03,42.32 114.3,18.34 138,7.86 145.37,4.6 154.92,1.1 163,1 c 0,0 131,0 131,0 0,0 263,0 263,0 0,0 -38.14,81 -38.14,81 0,0 -8.08,17 -8.08,17 -1.01,2.15 -2.6,6.7 -4.43,8.01 -1.74,1.24 -5.25,0.99 -7.35,0.99 0,0 -304,0 -304,0 -12.49,-0.02 -25.36,-7.15 -37,-11.58 z"
       style="fill:#000000;fill-opacity:1" />
    <path
       id="Selection"
       fill="none"
       stroke="#000000"
       stroke-width="1"
       d="m 69,469 c 0,0 -15.72,-18 -15.72,-18 0,0 -6.95,-10 -6.95,-10 0,0 2.39,-27 2.39,-27 0,0 5.11,-51 5.11,-51 0,0 13,-129 13,-129 0,0 4.89,-49 4.89,-49 0,0 6.45,-66 6.45,-66 0,0 1.75,-16 1.75,-16 0,0 1.68,-5.88 1.68,-5.88 0,0 7.4,1.28 7.4,1.28 0,0 18,7 18,7 0,0 54,21.02 54,21.02 0,0 22,8.58 22,8.58 0,0 -6.17,61 -6.17,61 0,0 -11.66,115 -11.66,115 0,0 -5.09,50 -5.09,50 -0.36,4.57 -1.79,24.07 -3.25,27 -2.51,5.01 -19.66,19.28 -24.83,24.09 0,0 -44,40.08 -44,40.08 z"
       style="fill:#000000;fill-opacity:1" />
  </g>
</svg>
